# AST/ASF file generated using VICON BodyLanguage
# -----------------------------------------------
:version 1.10
:name VICON
:units
  mass 1.0
  length 0.45
  angle deg
:documentation
   .ast/.asf automatically generated from VICON data using
   VICON BodyBuilder and BodyLanguage model FoxedUp or BRILLIANT.MOD
:root
   order TX TY TZ RX RY RZ
   axis XYZ
   position 0 0 0  
   orientation 0 0 0 
:bonedata
  begin
     id 1 
     name lhipjoint
     direction 0.566809 -0.746272 0.349008 
     length 2.40479 
     axis 0 0 0  XYZ
  end
  begin
     id 2 
     name lfemur
     direction 0.34202 -0.939693 0  
     length 7.1578  
     axis 0 0 20  XYZ
    dof rx ry rz
    limits (-160.0 20.0)
           (-70.0 70.0)
           (-60.0 70.0)
  end
  begin
     id 3 
     name ltibia
     direction 0.34202 -0.939693 0   
     length 7.49137   
     axis 0 0 20   XYZ
    dof rx
    limits (-10.0 170.0)
  end
  begin
     id 4 
     name lfoot
     direction 0.0665746 -0.182912 0.980873   
     length 2.36784   
     axis -90 7.62852e-016 20   XYZ
    dof rx rz
    limits (-45.0 90.0)
           (-70.0 20.0)
  end
  begin
     id 5 
     name ltoes
     direction 1.53601e-011 -4.22058e-011 1   
     length 1.18966   
     axis -90 7.62852e-016 20   XYZ
    dof rx
    limits (-90.0 20.0)
  end
  begin
     id 6 
     name rhipjoint
     direction -0.550236 -0.756381 0.353735   
     length 2.37265  
     axis 0 0 0  XYZ 
  end
  begin
     id 7 
     name rfemur
     direction -0.34202 -0.939693 0   
     length 7.43386   
     axis 0 0 -20   XYZ
    dof rx ry rz
    limits (-160.0 20.0)
           (-70.0 70.0)
           (-70.0 60.0)
  end
  begin
     id 8 
     name rtibia
     direction -0.34202 -0.939693 0   
     length 7.50908   
     axis 0 0 -20   XYZ
    dof rx
    limits (-10.0 170.0)
 end
 begin
     id 9 
     name rfoot
     direction -0.0683029 -0.187661 0.979856   
     length 2.41173  
     axis -90 -7.62852e-016 -20   XYZ
    dof rx rz
    limits (-45.0 90.0)
           (-20.0 70.0)
  end
  begin
     id 10 
     name rtoes
     direction -1.53528e-011 -4.21968e-011 1   
     length 1.21082   
     axis -90 -7.62852e-016 -20   XYZ
    dof rx
    limits (-90.0 20.0)
  end
  begin
     id 11 
     name lowerback
     direction 0.013823 0.995423 -0.0945635   
     length 2.04495   
     axis 0 0 0   XYZ
    dof rx ry rz
    limits (-20.0 45.0)
           (-30.0 30.0)
           (-30.0 30.0)
  end
  begin
     id 12 
     name upperback
     direction 0.0276657 0.9994 -0.020853   
     length 2.05008   
     axis 0 0 0   XYZ
    dof rx ry rz
    limits (-20.0 45.0)
           (-30.0 30.0)
           (-30.0 30.0)
  end
  begin
     id 13 
     name thorax
     direction 0.019782 0.999531 0.0233827   
     length 2.06488   
     axis 0 0 0   XYZ
    dof rx ry rz
    limits (-20.0 45.0)
           (-30.0 30.0)
           (-30.0 30.0)
  end
  begin
     id 14 
     name lowerneck
     direction -0.0308541 0.994709 0.0979874   
     length 1.75553   
     axis 0 0 0   XYZ
    dof rx ry rz
    limits (-20.0 45.0)
           (-30.0 30.0)
           (-30.0 30.0)
  end
  begin
     id 15 
     name upperneck
     direction 0.0588398 0.995804 -0.0700903   
     length 1.76878   
     axis 0 0 0   XYZ
    dof rx ry rz
    limits (-20.0 45.0)
           (-30.0 30.0)
           (-30.0 30.0)
  end
  begin
     id 16
     name head
     direction 0.0209966 0.999159 -0.0352225  
     length 1.77193  
     axis 0 0 0   XYZ
    dof rx ry rz
    limits (-20.0 45.0)
           (-30.0 30.0)
           (-30.0 30.0)
  end
  begin
     id 17 
     name lclavicle
     direction 0.938182 0.335073 -0.0868338  
     length 3.58396  
     axis 0 0 0   XYZ
    dof ry rz
    limits (-20.0 10.0)
           (0.0 20.0)
  end
  begin
     id 18 
     name lhumerus
     direction 1 -4.48971e-011 -1.26313e-017   
     length 4.983   
     axis 180 -30 -90   XYZ
    dof rx ry rz
    limits (-60.0 90.0)
           (-90.0 90.0)
           (-90.0 90.0)
  end
  begin
     id 19
     name lradius
     direction 1 -4.48948e-011 -5.89033e-027   
     length 3.48356   
     axis 180 -30 -90   XYZ
    dof rx
    limits (-10.0 170.0)
  end
  begin
     id 20
     name lwrist
     direction 1 -4.48977e-011 -1.48983e-026   
     length 1.74178   
     axis 9.0955e-015 90 90   XYZ
    dof ry
    limits (-180.0 0.0)
 end
  begin
     id 21 
     name lhand
     direction 1 -4.49046e-011 -2.98066e-026   
     length 0.715259   
     axis 1.90115e-014 90 90   XYZ
    dof rx rz
    limits (-90.0 90.0)
           (-45.0 45.0)
  end
  begin
     id 22 
     name lfingers
     direction 1 -4.48907e-011 -5.95731e-026   
     length 0.576661   
     axis 3.80223e-014 90 90   XYZ
    dof rx
    limits (0.0 90.0)
  end
  begin
     id 23
     name lthumb
     direction 0.707107 -6.34963e-011 0.707107   
     length 0.827973   
     axis -90 45 -3.84942e-014   XYZ
    dof rx rz
    limits (-45.0 45.0)
           (-45.0 45.0)
  end
  begin
     id 24 
     name rclavicle
     direction -0.909637 0.398485 -0.11735   
     length 3.44819  
     axis 0 0 0   XYZ 
    dof ry rz
    limits (-10.0 20.0)
           (-20.0 0.0)
  end
  begin
     id 25 
     name rhumerus
     direction -1 -4.48978e-011 -1.09333e-027  
     length 5.2419   
     axis 180 30 90   XYZ
    dof rx ry rz
    limits (-90.0 60.0)
           (-90.0 90.0)
           (-90.0 90.0)
  end
  begin
     id 26 
     name rradius
     direction -1 -4.48953e-011 -7.61841e-027   
     length 3.44417   
     axis 180 30 90   XYZ
    dof rx
    limits (-10.0 170.0)
  end
  begin
     id 27 
     name rwrist
     direction -1 -4.48977e-011 -1.48983e-026   
     length 1.72209   
     axis 9.0955e-015 -90 -90   XYZ
    dof ry
    limits (-180.0 0.0)
  end
  begin
     id 28
     name rhand
     direction -1 -4.49027e-011 -2.98038e-026   
     length 0.622529   
     axis 1.90115e-014 -90 -90   XYZ
    dof rx rz
    limits (-90.0 90.0)
           (-45.0 45.0)
  end
  begin
     id 29
     name rfingers
     direction -1 -4.48838e-011 -5.95531e-026   
     length 0.501899   
     axis 3.80223e-014 -90 -90   XYZ
    dof rx
    limits (0.0 90.0)
  end
  begin
     id 30
     name rthumb
     direction -0.707107 -6.34937e-011 0.707107   
     length 0.720629   
     axis -90 -45 3.84942e-014   XYZ
    dof rx rz
    limits (-45.0 45.0)
           (-45.0 45.0)
  end
:hierarchy
  begin
    root lhipjoint rhipjoint lowerback
    lhipjoint lfemur
    lfemur ltibia
    ltibia lfoot
    lfoot ltoes
    rhipjoint rfemur
    rfemur rtibia
    rtibia rfoot
    rfoot rtoes
    lowerback upperback
    upperback thorax
    thorax lowerneck lclavicle rclavicle
    lowerneck upperneck
    upperneck head
    lclavicle lhumerus
    lhumerus lradius
    lradius lwrist
    lwrist lhand lthumb
    lhand lfingers
    rclavicle rhumerus
    rhumerus rradius
    rradius rwrist
    rwrist rhand rthumb
    rhand rfingers
  end

#!OML:ASF H:\Terrain\Patient Classification 1\PLAYGROUND\JustinFriday\JustinFriday.ASF
:FULLY-SPECIFIED
:DEGREES
653
root -18.8528 28.6338 -8.32749 240.467 82.5624 -140.007
lowerback 38.0184 -0.613366 2.66948
upperback 12.0368 2.15442 3.5986
thorax -5.38916 1.57928 1.5637
lowerneck -2.84185 7.18224 -1.65223
upperneck -29.4211 11.248 -3.39079
head -8.64316 6.73036 -1.70771
rclavicle -1.59028e-015 2.20651e-014
rhumerus 24.6993 10.502 -69.8188
rradius 93.9891
rwrist 14.8531
rhand -6.61855 -23.8464
rfingers 7.12502
rthumb 19.2377 -52.9149
lclavicle -1.59028e-015 2.20651e-014
lhumerus 27.5455 -14.888 57.3023
lradius 80.0561
lwrist -19.8533
lhand -17.028 -14.3714
lfingers 7.12502
lthumb 9.20834 15.4075
rfemur -59.2653 -3.59388 34.0071
rtibia 71.4299
rfoot -41.812 -13.191
rtoes 14.5688
lfemur -36.3722 8.19397 -15.1797
ltibia 43.0488
lfoot -6.21474 0.924153
ltoes 0.152405
654
root -18.799 28.6577 -8.32405 242.547 82.6299 -138.367
lowerback 37.819 0.204698 1.95858
upperback 11.9457 3.01538 4.9248
thorax -5.565 1.92719 3.0166
lowerneck -1.67822 7.02454 -3.08342
upperneck -29.5958 10.8117 -3.50788
head -8.99602 6.64208 -1.56502
rclavicle 2.38542e-015 -1.90833e-014
rhumerus 23.9321 10.6948 -67.4618
rradius 94.7079
rwrist 14.7696
rhand -7.26693 -24.3468
rfingers 7.12502
rthumb 18.6141 -53.4762
lclavicle 2.38542e-015 -1.90833e-014
lhumerus 26.7561 -15.3468 59.6403
lradius 80.6508
lwrist -20.2723
lhand -17.687 -14.2432
lfingers 7.12502
lthumb 8.57236 15.5628
rfemur -59.2146 -3.11398 34.0208
rtibia 70.9516
rfoot -41.4984 -13.93
rtoes 12.916
lfemur -37.2905 9.07799 -15.3549
ltibia 44.5211
lfoot -7.57514 1.55948
ltoes -3.7795
655
root -18.7368 28.7104 -8.35474 244.724 82.9352 -136.807
lowerback 37.6694 0.075801 3.0347
upperback 11.8994 3.1536 4.38418
thorax -5.47603 2.01995 1.84017
lowerneck -2.39732 6.45241 -3.86131
upperneck -28.8445 10.525 -1.24979
head -8.78177 6.36032 -0.601919
rclavicle 1.35174e-014 3.18055e-015
rhumerus 23.4017 10.4114 -67.6865
rradius 95.3066
rwrist 15.2535
rhand -8.43819 -25.9919
rfingers 7.12502
rthumb 17.4872 -55.2254
lclavicle 1.35174e-014 3.18055e-015
lhumerus 26.8415 -15.7782 59.348
lradius 81.6178
lwrist -20.2663
lhand -17.533 -14.3179
lfingers 7.12502
lthumb 8.72098 15.4819
rfemur -59.3036 -2.87085 33.7741
rtibia 70.4081
rfoot -41.4376 -13.5564
rtoes 13.3048
lfemur -38.1171 8.63512 -15.5552
ltibia 45.9281
lfoot -9.04201 3.4719
ltoes -3.91791
656
root -18.6841 28.7534 -8.32069 241.494 81.986 -140.031
lowerback 38.1973 0.574051 1.83836
upperback 11.8446 3.60009 6.12021
thorax -5.93905 2.17327 4.11607
lowerneck -2.29153 6.5989 -3.27044
upperneck -28.0546 10.2075 -2.90713
head -8.38342 6.25028 -1.18624
rclavicle 5.24792e-014 5.60573e-014
rhumerus 22.1087 10.8368 -65.3005
rradius 96.8027
rwrist 14.5295
rhand -8.91357 -24.8776
rfingers 7.12502
rthumb 17.0296 -54.1512
lclavicle 5.24792e-014 5.60573e-014
lhumerus 25.7526 -15.1485 62.465
lradius 81.7406
lwrist -21.4599
lhand -17.4002 -14.7301
lfingers 7.12502
lthumb 8.8492 15.0644
rfemur -58.8179 -3.61903 34.571
rtibia 69.8286
rfoot -41.6354 -13.4422
rtoes 13.7397
lfemur -38.5384 7.70334 -14.6742
ltibia 47.3009
lfoot -10.738 4.30097
ltoes -1.77087
657
root -18.6303 28.7854 -8.30512 242.545 82.2567 -139.301
lowerback 38.4012 -0.123592 3.6136
upperback 11.7094 3.15709 4.17776
thorax -5.87928 2.03023 1.30327
lowerneck -2.0739 6.40985 -2.70551
upperneck -28.4275 10.4732 -1.17704
head -8.62251 6.18716 -0.754974
rclavicle -4.92986e-014 -2.62396e-014
rhumerus 21.1544 9.73244 -68.014
rradius 97.1631
rwrist 15.2674
rhand -9.28652 -24.0184
rfingers 7.12502
rthumb 16.6706 -53.3226
lclavicle -4.92986e-014 -2.62396e-014
lhumerus 26.434 -15.9099 60.241
lradius 81.8565
lwrist -21.5755
lhand -17.5453 -15.1465
lfingers 7.12502
lthumb 8.70912 14.6539
rfemur -58.7773 -4.32007 34.8875
rtibia 69.3454
rfoot -40.6018 -14.4789
rtoes 9.06782
lfemur -39.1769 8.40053 -14.9875
ltibia 48.6381
lfoot -12.5372 4.4061
ltoes 11.258
